<svg width="27" height="30" viewBox="0 0 27 30" fill="none" xmlns="http://www.w3.org/2000/svg">
<path d="M23.7083 3.37467H22.25V0.458008H19.3333V3.37467H7.66667V0.458008H4.75V3.37467H3.29167C1.6875 3.37467 0.375 4.68717 0.375 6.29134V26.708C0.375 28.3122 1.6875 29.6247 3.29167 29.6247H23.7083C25.3125 29.6247 26.625 28.3122 26.625 26.708V6.29134C26.625 4.68717 25.3125 3.37467 23.7083 3.37467ZM23.7083 26.708H3.29167V12.1247H23.7083V26.708ZM3.29167 9.20801V6.29134H23.7083V9.20801H3.29167ZM6.20833 15.0413H20.7917V17.958H6.20833V15.0413ZM6.20833 20.8747H16.4167V23.7913H6.20833V20.8747Z" fill="black"/>
</svg>
