<svg xmlns="http://www.w3.org/2000/svg" width="31" height="31" fill="none" viewBox="0 0 31 31"><path fill="#000" d="M15.4853 0.916992C7.43525 0.916992 0.916504 7.45033 0.916504 15.5003C0.916504 23.5503 7.43525 30.0837 15.4853 30.0837C23.5498 30.0837 30.0832 23.5503 30.0832 15.5003C30.0832 7.45033 23.5498 0.916992 15.4853 0.916992ZM15.4998 27.167C9.054 27.167 3.83317 21.9462 3.83317 15.5003C3.83317 9.05449 9.054 3.83366 15.4998 3.83366C21.9457 3.83366 27.1665 9.05449 27.1665 15.5003C27.1665 21.9462 21.9457 27.167 15.4998 27.167ZM16.229 8.20866H14.0415V16.9587L21.6978 21.5524L22.7915 19.7587L16.229 15.8649V8.20866Z"/></svg>