<svg xmlns="http://www.w3.org/2000/svg" width="25" height="31" fill="none" viewBox="0 0 25 31"><path fill="#000" d="M12.5002 15.5003C10.896 15.5003 9.5835 14.1878 9.5835 12.5837C9.5835 10.9795 10.896 9.66699 12.5002 9.66699C14.1043 9.66699 15.4168 10.9795 15.4168 12.5837C15.4168 14.1878 14.1043 15.5003 12.5002 15.5003ZM21.2502 12.8753C21.2502 7.58158 17.3856 3.83366 12.5002 3.83366C7.61475 3.83366 3.75016 7.58158 3.75016 12.8753C3.75016 16.2878 6.59391 20.8087 12.5002 26.2045C18.4064 20.8087 21.2502 16.2878 21.2502 12.8753ZM12.5002 0.916992C18.6252 0.916992 24.1668 5.61283 24.1668 12.8753C24.1668 17.717 20.2731 23.4482 12.5002 30.0837C4.72725 23.4482 0.833496 17.717 0.833496 12.8753C0.833496 5.61283 6.37516 0.916992 12.5002 0.916992Z"/></svg>