<svg xmlns="http://www.w3.org/2000/svg" width="31" height="21" fill="none" viewBox="0 0 31 21"><path fill="#000" d="M11.1248 13.0524C7.71234 13.0524 0.916504 14.7587 0.916504 18.1566V20.7087H21.3332V18.1566C21.3332 14.7587 14.5373 13.0524 11.1248 13.0524ZM4.329 17.792C5.554 16.9462 8.51442 15.9691 11.1248 15.9691C13.7353 15.9691 16.6957 16.9462 17.9207 17.792H4.329ZM11.1248 10.5003C13.9394 10.5003 16.229 8.21074 16.229 5.39616C16.229 2.58158 13.9394 0.291992 11.1248 0.291992C8.31025 0.291992 6.02067 2.58158 6.02067 5.39616C6.02067 8.21074 8.31025 10.5003 11.1248 10.5003ZM11.1248 3.20866C12.3353 3.20866 13.3123 4.18574 13.3123 5.39616C13.3123 6.60658 12.3353 7.58366 11.1248 7.58366C9.91442 7.58366 8.93734 6.60658 8.93734 5.39616C8.93734 4.18574 9.91442 3.20866 11.1248 3.20866ZM21.3915 13.1399C23.0832 14.3649 24.2498 15.9982 24.2498 18.1566V20.7087H30.0832V18.1566C30.0832 15.2107 24.979 13.5337 21.3915 13.1399ZM19.8748 10.5003C22.6894 10.5003 24.979 8.21074 24.979 5.39616C24.979 2.58158 22.6894 0.291992 19.8748 0.291992C19.0873 0.291992 18.3582 0.481575 17.6873 0.802409C18.6061 2.10033 19.1457 3.68991 19.1457 5.39616C19.1457 7.10241 18.6061 8.69199 17.6873 9.98991C18.3582 10.3107 19.0873 10.5003 19.8748 10.5003Z"/></svg>