<svg width="24" height="16" viewBox="0 0 24 16" fill="none" xmlns="http://www.w3.org/2000/svg">
<path d="M0 0V16H7.15435C7.81712 16 12.3812 15.8547 12.3812 11.3514C12.3812 8.53708 10.5899 7.58054 9.68055 7.29687C10.3497 6.95611 11.6817 6.14487 11.6817 3.97319C11.6817 2.76324 11.5216 0 6.95424 0H0ZM16.309 1.4867V2.94573H21.8369V1.48757L16.309 1.4867ZM3.2514 2.72951H6.30348C6.59164 2.72951 8.52951 2.56432 8.52951 4.56735C8.52951 6.27978 7.12874 6.45968 6.55322 6.45968H3.253L3.2514 2.72951ZM19.2106 4.26984C15.0299 4.26984 14.1574 8.19287 14.1574 9.89146C14.1574 14.9362 17.9851 15.5131 19.2106 15.5131C22.5156 15.5131 23.453 13.203 23.838 11.9187H21.4366C21.343 12.2499 20.6426 13.3241 19.3107 13.3241C17.0774 13.3241 16.8845 11.4387 16.8845 10.5946H23.9885C24.1325 7.67568 22.9503 4.26984 19.2106 4.26984ZM19.1354 6.45968C19.8013 6.45968 20.3392 6.66897 20.6618 7.05384C20.9836 7.44303 21.2213 8.01038 21.2862 8.75676H16.8837C16.8965 8.55092 16.9406 8.31395 17.0094 8.05362C17.0782 7.78724 17.1847 7.53384 17.36 7.29687C17.5345 7.06422 17.7786 6.86184 18.0604 6.7027C18.3477 6.54011 18.7039 6.45968 19.1354 6.45968ZM3.2522 8.86487H6.77894C7.47933 8.86487 9.12984 8.98335 9.12984 11.1619C9.12984 13.2739 7.0511 13.2705 6.72852 13.2705H3.2514L3.2522 8.86487Z" fill="#EA4AC5"/>
</svg>
