<svg xmlns="http://www.w3.org/2000/svg" width="17" height="14" fill="none" viewBox="0 0 17 14"><mask id="path-1-inside-1_29_74" fill="#fff"><path d="M16.3313 1.66566C16.3313 0.772566 15.6298 0.0418549 14.7724 0.0418549H2.30165C1.44428 0.0418549 0.742798 0.772566 0.742798 1.66566V11.4085C0.742798 12.3016 1.44428 13.0323 2.30165 13.0323H14.7724C15.6298 13.0323 16.3313 12.3016 16.3313 11.4085V1.66566ZM14.7724 1.66566L8.53705 5.72516L2.30165 1.66566H14.7724ZM14.7724 11.4085H2.30165V3.28946L8.53705 7.34896L14.7724 3.28946V11.4085Z"/></mask><path fill="#fff" d="M16.3313 1.66566C16.3313 0.772566 15.6298 0.0418549 14.7724 0.0418549H2.30165C1.44428 0.0418549 0.742798 0.772566 0.742798 1.66566V11.4085C0.742798 12.3016 1.44428 13.0323 2.30165 13.0323H14.7724C15.6298 13.0323 16.3313 12.3016 16.3313 11.4085V1.66566ZM14.7724 1.66566L8.53705 5.72516L2.30165 1.66566H14.7724ZM14.7724 11.4085H2.30165V3.28946L8.53705 7.34896L14.7724 3.28946V11.4085Z"/><path fill="#EA4AC5" d="M14.7724 1.66566L16.9549 5.01783L28.2478 -2.33434H14.7724V1.66566ZM8.53705 5.72516L6.35464 9.07734L8.53705 10.4982L10.7195 9.07734L8.53705 5.72516ZM2.30165 1.66566V-2.33434H-11.1737L0.11924 5.01783L2.30165 1.66566ZM14.7724 11.4085V15.4085H18.7724V11.4085H14.7724ZM2.30165 11.4085H-1.69835V15.4085H2.30165V11.4085ZM2.30165 3.28946L4.48406 -0.0627195L-1.69835 -4.08772V3.28946H2.30165ZM8.53705 7.34896L6.35464 10.7011L8.53705 12.122L10.7195 10.7011L8.53705 7.34896ZM14.7724 3.28946H18.7724V-4.08772L12.59 -0.0627195L14.7724 3.28946ZM20.3313 1.66566C20.3313 -1.28111 17.9913 -3.95815 14.7724 -3.95815V4.04185C13.2683 4.04185 12.3313 2.82624 12.3313 1.66566H20.3313ZM14.7724 -3.95815H2.30165V4.04185H14.7724V-3.95815ZM2.30165 -3.95815C-0.917184 -3.95815 -3.2572 -1.28111 -3.2572 1.66566H4.7428C4.7428 2.82624 3.80574 4.04185 2.30165 4.04185V-3.95815ZM-3.2572 1.66566V11.4085H4.7428V1.66566H-3.2572ZM-3.2572 11.4085C-3.2572 14.3552 -0.917184 17.0323 2.30165 17.0323V9.03227C3.80574 9.03227 4.7428 10.2479 4.7428 11.4085H-3.2572ZM2.30165 17.0323H14.7724V9.03227H2.30165V17.0323ZM14.7724 17.0323C17.9913 17.0323 20.3313 14.3552 20.3313 11.4085H12.3313C12.3313 10.2479 13.2683 9.03227 14.7724 9.03227V17.0323ZM20.3313 11.4085V1.66566H12.3313V11.4085H20.3313ZM12.59 -1.68652L6.35464 2.37298L10.7195 9.07734L16.9549 5.01783L12.59 -1.68652ZM10.7195 2.37298L4.48406 -1.68652L0.11924 5.01783L6.35464 9.07734L10.7195 2.37298ZM2.30165 5.66566H14.7724V-2.33434H2.30165V5.66566ZM14.7724 7.40847H2.30165V15.4085H14.7724V7.40847ZM6.30165 11.4085V3.28946H-1.69835V11.4085H6.30165ZM0.11924 6.64164L6.35464 10.7011L10.7195 3.99679L4.48406 -0.0627195L0.11924 6.64164ZM10.7195 10.7011L16.9549 6.64164L12.59 -0.0627195L6.35464 3.99679L10.7195 10.7011ZM10.7724 3.28946V11.4085H18.7724V3.28946H10.7724Z" mask="url(#path-1-inside-1_29_74)"/></svg>