<svg width="16" height="17" viewBox="0 0 16 17" fill="none" xmlns="http://www.w3.org/2000/svg">
<path fill-rule="evenodd" clip-rule="evenodd" d="M6.18268 5.8756H9.07747V7.31754C9.49446 6.48823 10.5638 5.7431 12.1702 5.7431C15.2497 5.7431 15.9808 7.39392 15.9808 10.4228V16.0323H12.8631V11.1126C12.8631 9.38769 12.4461 8.41497 11.3846 8.41497C9.91223 8.41497 9.30038 9.46329 9.30038 11.1118V16.0323H6.18268V5.8756ZM0.836606 15.8998H3.95431V5.7431H0.836606V15.8998ZM4.40092 2.43132C4.40103 2.69264 4.34921 2.95138 4.24845 3.1925C4.1477 3.43361 4.00002 3.6523 3.81401 3.83584C3.43708 4.21045 2.92688 4.42014 2.39546 4.41885C1.86497 4.4185 1.35595 4.20934 0.978462 3.83662C0.793123 3.65245 0.645948 3.43352 0.545369 3.19238C0.44479 2.95123 0.392785 2.6926 0.392334 2.43132C0.392334 1.90365 0.602779 1.39858 0.979241 1.02602C1.35639 0.652796 1.86563 0.443553 2.39624 0.443787C2.9278 0.443787 3.43755 0.653452 3.81401 1.02602C4.18969 1.39858 4.40092 1.90365 4.40092 2.43132Z" fill="#EA4AC5"/>
</svg>
