<svg xmlns="http://www.w3.org/2000/svg" width="61" height="24" fill="none" viewBox="0 0 61 24"><path fill="#E6C8D2" d="M60.7481 12.4238L40.7481 0.876822V23.9708L60.7481 12.4238ZM4.49805 14.4238H6.49805V10.4238H4.49805V14.4238ZM11.998 10.4238H9.99805V14.4238H11.998V10.4238ZM19.498 14.4238H21.498V10.4238H19.498V14.4238ZM26.998 10.4238H24.998V14.4238H26.998V10.4238ZM34.498 14.4238H36.498V10.4238H34.498V14.4238ZM41.998 10.4238H39.998V14.4238H41.998V10.4238ZM49.498 14.4238H51.498V10.4238H49.498V14.4238ZM56.9981 10.4238H54.9981V14.4238H56.9981V10.4238ZM0.748047 14.4238H4.49805V10.4238H0.748047V14.4238ZM11.998 14.4238H19.498V10.4238H11.998V14.4238ZM26.998 14.4238H34.498V10.4238H26.998V14.4238ZM41.998 14.4238H49.498V10.4238H41.998V14.4238Z"/></svg>