<svg xmlns="http://www.w3.org/2000/svg" width="29" height="32" fill="none" viewBox="0 0 29 32"><path fill="#000" d="M25.3245 3.62973H23.7811V0.542969H20.6943V3.62973H8.34728V0.542969H5.26052V3.62973H3.71713C2.01941 3.62973 0.630371 5.01878 0.630371 6.7165V28.3238C0.630371 30.0216 2.01941 31.4106 3.71713 31.4106H25.3245C27.0222 31.4106 28.4112 30.0216 28.4112 28.3238V6.7165C28.4112 5.01878 27.0222 3.62973 25.3245 3.62973ZM25.3245 28.3238H3.71713V12.89H25.3245V28.3238ZM3.71713 9.80326V6.7165H25.3245V9.80326H3.71713ZM6.8039 15.9768H22.2377V19.0636H6.8039V15.9768ZM6.8039 22.1503H17.6076V25.2371H6.8039V22.1503Z"/></svg>