<svg xmlns="http://www.w3.org/2000/svg" width="32" height="32" fill="none" viewBox="0 0 32 32"><path fill="#000" d="M16.1713 0.985352C7.65185 0.985352 0.75293 7.8997 0.75293 16.4192C0.75293 24.9386 7.65185 31.853 16.1713 31.853C24.7062 31.853 31.6206 24.9386 31.6206 16.4192C31.6206 7.8997 24.7062 0.985352 16.1713 0.985352ZM16.1867 28.7662C9.365 28.7662 3.83969 23.2409 3.83969 16.4192C3.83969 9.59742 9.365 4.07212 16.1867 4.07212C23.0085 4.07212 28.5338 9.59742 28.5338 16.4192C28.5338 23.2409 23.0085 28.7662 16.1867 28.7662ZM16.9584 8.70226H14.6434V17.9626L22.7461 22.8242L23.9037 20.9258L16.9584 16.805V8.70226Z"/></svg>