<svg width="32" height="23" viewBox="0 0 32 23" fill="none" xmlns="http://www.w3.org/2000/svg">
<path d="M11.5566 14.0368C7.94509 14.0368 0.75293 15.8426 0.75293 19.4387V22.1396H22.3603V19.4387C22.3603 15.8426 15.1681 14.0368 11.5566 14.0368ZM4.36444 19.0528C5.66088 18.1576 8.79395 17.1236 11.5566 17.1236C14.3193 17.1236 17.4523 18.1576 18.7488 19.0528H4.36444ZM11.5566 11.3359C14.5353 11.3359 16.9584 8.91279 16.9584 5.93406C16.9584 2.95534 14.5353 0.532227 11.5566 0.532227C8.57788 0.532227 6.15477 2.95534 6.15477 5.93406C6.15477 8.91279 8.57788 11.3359 11.5566 11.3359ZM11.5566 3.61899C12.8376 3.61899 13.8717 4.65306 13.8717 5.93406C13.8717 7.21507 12.8376 8.24914 11.5566 8.24914C10.2756 8.24914 9.24153 7.21507 9.24153 5.93406C9.24153 4.65306 10.2756 3.61899 11.5566 3.61899ZM22.422 14.1294C24.2123 15.4259 25.447 17.1544 25.447 19.4387V22.1396H31.6206V19.4387C31.6206 16.321 26.2187 14.5461 22.422 14.1294ZM20.8169 11.3359C23.7956 11.3359 26.2187 8.91279 26.2187 5.93406C26.2187 2.95534 23.7956 0.532227 20.8169 0.532227C19.9835 0.532227 19.2118 0.732866 18.5018 1.07241C19.4742 2.44602 20.0452 4.12831 20.0452 5.93406C20.0452 7.73982 19.4742 9.4221 18.5018 10.7957C19.2118 11.1353 19.9835 11.3359 20.8169 11.3359Z" fill="black"/>
</svg>
