<svg width="26" height="32" viewBox="0 0 26 32" fill="none" xmlns="http://www.w3.org/2000/svg">
<path d="M13.2763 16.4192C11.5785 16.4192 10.1895 15.0301 10.1895 13.3324C10.1895 11.6347 11.5785 10.2456 13.2763 10.2456C14.974 10.2456 16.363 11.6347 16.363 13.3324C16.363 15.0301 14.974 16.4192 13.2763 16.4192ZM22.5365 13.6411C22.5365 8.03861 18.4466 4.07212 13.2763 4.07212C8.10592 4.07212 4.01596 8.03861 4.01596 13.6411C4.01596 17.2526 7.02556 22.0371 13.2763 27.7476C19.5269 22.0371 22.5365 17.2526 22.5365 13.6411ZM13.2763 0.985352C19.7585 0.985352 25.6233 5.95504 25.6233 13.6411C25.6233 18.7651 21.5025 24.8306 13.2763 31.853C5.05003 24.8306 0.929199 18.7651 0.929199 13.6411C0.929199 5.95504 6.79405 0.985352 13.2763 0.985352Z" fill="black"/>
</svg>
