<svg xmlns="http://www.w3.org/2000/svg" width="1085" height="912" fill="none" viewBox="0 0 1085 912"><circle cx="857.807" cy="559.807" r="50.807" fill="#FDDD5E"/><g filter="url(#filter0_f_930_31)"><circle cx="857.896" cy="559.218" r="26.508" fill="#FCDD61"/></g><path fill="#FCFCFC" d="M827.312 642.834L826.678 646.155H829.441V647.395H826.434L825.604 651.614H824.285L825.115 647.395H822.137L821.336 651.614H820.037L820.809 647.395H818.25V646.155H821.053L821.707 642.834H818.992V641.614H821.932L822.742 637.336H824.08L823.27 641.614H826.268L827.078 637.336H828.367L827.557 641.614H830.145V642.834H827.312ZM822.371 646.155H825.35L825.994 642.834H823.016L822.371 646.155ZM834.685 651.614H833.025V637.336H840.974V638.801H834.685V644.036H840.593V645.491H834.685V651.614ZM855.095 644.338C855.095 645.946 854.802 647.291 854.216 648.372C853.63 649.446 852.78 650.256 851.667 650.803C850.56 651.344 849.216 651.614 847.634 651.614H843.757V637.336H848.064C849.515 637.336 850.765 637.603 851.814 638.137C852.862 638.665 853.669 639.449 854.236 640.491C854.808 641.526 855.095 642.808 855.095 644.338ZM853.347 644.397C853.347 643.114 853.132 642.056 852.702 641.223C852.279 640.39 851.654 639.771 850.827 639.368C850.007 638.958 849.001 638.752 847.81 638.752H845.417V650.188H847.439C849.405 650.188 850.879 649.703 851.862 648.733C852.852 647.763 853.347 646.318 853.347 644.397ZM870.007 644.338C870.007 645.946 869.714 647.291 869.128 648.372C868.542 649.446 867.692 650.256 866.579 650.803C865.472 651.344 864.128 651.614 862.546 651.614H858.669V637.336H862.975C864.427 637.336 865.677 637.603 866.725 638.137C867.774 638.665 868.581 639.449 869.147 640.491C869.72 641.526 870.007 642.808 870.007 644.338ZM868.259 644.397C868.259 643.114 868.044 642.056 867.614 641.223C867.191 640.39 866.566 639.771 865.739 639.368C864.919 638.958 863.913 638.752 862.721 638.752H860.329V650.188H862.35C864.317 650.188 865.791 649.703 866.774 648.733C867.764 647.763 868.259 646.318 868.259 644.397ZM884.918 644.338C884.918 645.946 884.625 647.291 884.039 648.372C883.454 649.446 882.604 650.256 881.491 650.803C880.384 651.344 879.039 651.614 877.457 651.614H873.58V637.336H877.887C879.339 637.336 880.589 637.603 881.637 638.137C882.685 638.665 883.493 639.449 884.059 640.491C884.632 641.526 884.918 642.808 884.918 644.338ZM883.17 644.397C883.17 643.114 882.955 642.056 882.526 641.223C882.103 640.39 881.478 639.771 880.651 639.368C879.83 638.958 878.825 638.752 877.633 638.752H875.241V650.188H877.262C879.228 650.188 880.703 649.703 881.686 648.733C882.676 647.763 883.17 646.318 883.17 644.397ZM892.037 642.883C893.007 642.883 893.85 643.049 894.566 643.381C895.283 643.707 895.836 644.182 896.227 644.807C896.624 645.432 896.822 646.191 896.822 647.083C896.822 648.059 896.611 648.902 896.187 649.612C895.764 650.315 895.156 650.859 894.361 651.243C893.567 651.62 892.617 651.809 891.51 651.809C890.768 651.809 890.077 651.744 889.439 651.614C888.801 651.484 888.264 651.288 887.828 651.028V649.485C888.303 649.771 888.88 649.999 889.557 650.168C890.234 650.338 890.891 650.422 891.529 650.422C892.252 650.422 892.883 650.308 893.424 650.081C893.971 649.846 894.394 649.495 894.693 649.026C894.999 648.551 895.152 647.955 895.152 647.239C895.152 646.288 894.859 645.556 894.273 645.042C893.694 644.521 892.776 644.26 891.52 644.26C891.116 644.26 890.673 644.293 890.191 644.358C889.71 644.423 889.312 644.495 889 644.573L888.18 644.036L888.727 637.336H895.826V638.821H890.113L889.752 643.127C889.999 643.075 890.318 643.023 890.709 642.971C891.1 642.913 891.542 642.883 892.037 642.883ZM908.287 651.614H900.337V637.336H908.287V638.801H901.998V643.42H907.925V644.866H901.998V650.149H908.287V651.614Z"/><circle cx="347.807" cy="489.807" r="50.807" fill="#BBBBBC"/><g filter="url(#filter1_f_930_31)"><circle cx="347.895" cy="489.895" r="26.508" fill="#E4E4E4"/></g><path fill="#FCFCFC" d="M316.435 571.789L315.8 575.109H318.563V576.35H315.556L314.726 580.568H313.407L314.237 576.35H311.259L310.458 580.568H309.159L309.931 576.35H307.372V575.109H310.175L310.829 571.789H308.114V570.568H311.054L311.864 566.291H313.202L312.392 570.568H315.39L316.2 566.291H317.489L316.679 570.568H319.267V571.789H316.435ZM311.493 575.109H314.472L315.116 571.789H312.138L311.493 575.109ZM322.147 566.291H326.19C327.974 566.291 329.315 566.558 330.213 567.092C331.112 567.626 331.561 568.534 331.561 569.816C331.561 570.37 331.454 570.868 331.239 571.311C331.031 571.747 330.725 572.108 330.321 572.395C329.917 572.681 329.419 572.88 328.827 572.99V573.088C329.452 573.186 330.005 573.365 330.487 573.625C330.969 573.885 331.346 574.25 331.62 574.719C331.893 575.187 332.03 575.783 332.03 576.506C332.03 577.385 331.825 578.127 331.415 578.732C331.011 579.338 330.438 579.797 329.696 580.109C328.954 580.415 328.075 580.568 327.059 580.568H322.147V566.291ZM323.807 572.414H326.542C327.785 572.414 328.644 572.209 329.12 571.799C329.601 571.389 329.842 570.79 329.842 570.002C329.842 569.188 329.556 568.602 328.983 568.244C328.417 567.886 327.512 567.707 326.268 567.707H323.807V572.414ZM323.807 573.811V579.152H326.776C328.046 579.152 328.944 578.905 329.471 578.41C329.999 577.909 330.262 577.235 330.262 576.389C330.262 575.848 330.142 575.386 329.901 575.002C329.667 574.618 329.282 574.325 328.749 574.123C328.221 573.915 327.515 573.811 326.629 573.811H323.807ZM335.477 566.291H339.52C341.304 566.291 342.645 566.558 343.543 567.092C344.442 567.626 344.891 568.534 344.891 569.816C344.891 570.37 344.783 570.868 344.569 571.311C344.36 571.747 344.054 572.108 343.651 572.395C343.247 572.681 342.749 572.88 342.156 572.99V573.088C342.781 573.186 343.335 573.365 343.817 573.625C344.298 573.885 344.676 574.25 344.949 574.719C345.223 575.187 345.36 575.783 345.36 576.506C345.36 577.385 345.154 578.127 344.744 578.732C344.341 579.338 343.768 579.797 343.026 580.109C342.283 580.415 341.404 580.568 340.389 580.568H335.477V566.291ZM337.137 572.414H339.871C341.115 572.414 341.974 572.209 342.449 571.799C342.931 571.389 343.172 570.79 343.172 570.002C343.172 569.188 342.886 568.602 342.313 568.244C341.746 567.886 340.841 567.707 339.598 567.707H337.137V572.414ZM337.137 573.811V579.152H340.106C341.375 579.152 342.274 578.905 342.801 578.41C343.328 577.909 343.592 577.235 343.592 576.389C343.592 575.848 343.472 575.386 343.231 575.002C342.996 574.618 342.612 574.325 342.078 574.123C341.551 573.915 340.845 573.811 339.959 573.811H337.137ZM348.806 566.291H352.849C354.633 566.291 355.974 566.558 356.873 567.092C357.771 567.626 358.221 568.534 358.221 569.816C358.221 570.37 358.113 570.868 357.898 571.311C357.69 571.747 357.384 572.108 356.98 572.395C356.577 572.681 356.079 572.88 355.486 572.99V573.088C356.111 573.186 356.665 573.365 357.146 573.625C357.628 573.885 358.006 574.25 358.279 574.719C358.553 575.187 358.689 575.783 358.689 576.506C358.689 577.385 358.484 578.127 358.074 578.732C357.67 579.338 357.097 579.797 356.355 580.109C355.613 580.415 354.734 580.568 353.719 580.568H348.806V566.291ZM350.467 572.414H353.201C354.444 572.414 355.304 572.209 355.779 571.799C356.261 571.389 356.502 570.79 356.502 570.002C356.502 569.188 356.215 568.602 355.642 568.244C355.076 567.886 354.171 567.707 352.928 567.707H350.467V572.414ZM350.467 573.811V579.152H353.435C354.705 579.152 355.603 578.905 356.131 578.41C356.658 577.909 356.922 577.235 356.922 576.389C356.922 575.848 356.801 575.386 356.56 575.002C356.326 574.618 355.942 574.325 355.408 574.123C354.881 573.915 354.174 573.811 353.289 573.811H350.467ZM362.136 566.291H366.179C367.963 566.291 369.304 566.558 370.203 567.092C371.101 567.626 371.55 568.534 371.55 569.816C371.55 570.37 371.443 570.868 371.228 571.311C371.02 571.747 370.714 572.108 370.31 572.395C369.906 572.681 369.408 572.88 368.816 572.99V573.088C369.441 573.186 369.994 573.365 370.476 573.625C370.958 573.885 371.335 574.25 371.609 574.719C371.882 575.187 372.019 575.783 372.019 576.506C372.019 577.385 371.814 578.127 371.404 578.732C371 579.338 370.427 579.797 369.685 580.109C368.943 580.415 368.064 580.568 367.048 580.568H362.136V566.291ZM363.796 572.414H366.531C367.774 572.414 368.634 572.209 369.109 571.799C369.591 571.389 369.831 570.79 369.831 570.002C369.831 569.188 369.545 568.602 368.972 568.244C368.406 567.886 367.501 567.707 366.257 567.707H363.796V572.414ZM363.796 573.811V579.152H366.765C368.035 579.152 368.933 578.905 369.46 578.41C369.988 577.909 370.251 577.235 370.251 576.389C370.251 575.848 370.131 575.386 369.89 575.002C369.656 574.618 369.272 574.325 368.738 574.123C368.21 573.915 367.504 573.811 366.619 573.811H363.796ZM375.466 566.291H379.509C381.293 566.291 382.634 566.558 383.532 567.092C384.431 567.626 384.88 568.534 384.88 569.816C384.88 570.37 384.772 570.868 384.558 571.311C384.349 571.747 384.043 572.108 383.64 572.395C383.236 572.681 382.738 572.88 382.145 572.99V573.088C382.77 573.186 383.324 573.365 383.806 573.625C384.287 573.885 384.665 574.25 384.938 574.719C385.212 575.187 385.349 575.783 385.349 576.506C385.349 577.385 385.144 578.127 384.733 578.732C384.33 579.338 383.757 579.797 383.015 580.109C382.272 580.415 381.394 580.568 380.378 580.568H375.466V566.291ZM377.126 572.414H379.86C381.104 572.414 381.963 572.209 382.438 571.799C382.92 571.389 383.161 570.79 383.161 570.002C383.161 569.188 382.875 568.602 382.302 568.244C381.735 567.886 380.83 567.707 379.587 567.707H377.126V572.414ZM377.126 573.811V579.152H380.095C381.364 579.152 382.263 578.905 382.79 578.41C383.317 577.909 383.581 577.235 383.581 576.389C383.581 575.848 383.461 575.386 383.22 575.002C382.985 574.618 382.601 574.325 382.067 574.123C381.54 573.915 380.834 573.811 379.948 573.811H377.126ZM394.899 567.551C394.111 567.551 393.402 567.687 392.77 567.961C392.145 568.228 391.611 568.618 391.169 569.133C390.732 569.641 390.397 570.256 390.163 570.979C389.928 571.701 389.811 572.515 389.811 573.42C389.811 574.618 389.997 575.66 390.368 576.545C390.745 577.424 391.305 578.104 392.047 578.586C392.796 579.068 393.73 579.309 394.85 579.309C395.488 579.309 396.087 579.257 396.647 579.152C397.213 579.042 397.764 578.905 398.297 578.742V580.187C397.777 580.383 397.23 580.526 396.657 580.617C396.084 580.715 395.404 580.764 394.616 580.764C393.164 580.764 391.95 580.464 390.973 579.865C390.003 579.26 389.274 578.407 388.786 577.307C388.304 576.206 388.063 574.908 388.063 573.41C388.063 572.329 388.213 571.343 388.512 570.451C388.818 569.553 389.261 568.778 389.84 568.127C390.426 567.476 391.143 566.975 391.989 566.623C392.842 566.265 393.818 566.086 394.919 566.086C395.641 566.086 396.338 566.158 397.008 566.301C397.679 566.444 398.284 566.649 398.825 566.916L398.161 568.322C397.705 568.114 397.204 567.935 396.657 567.785C396.116 567.629 395.531 567.551 394.899 567.551Z"/><circle cx="226.807" cy="226.807" r="50.807" fill="#FCFAF6"/><g filter="url(#filter2_f_930_31)"><circle cx="226.896" cy="226.895" r="26.508" fill="#FCFCFC"/></g><path fill="#FCFCFC" d="M189.772 308.834L189.138 312.155H191.901V313.395H188.894L188.063 317.614H186.745L187.575 313.395H184.597L183.796 317.614H182.497L183.269 313.395H180.71V312.155H183.513L184.167 308.834H181.452V307.614H184.392L185.202 303.336H186.54L185.729 307.614H188.728L189.538 303.336H190.827L190.017 307.614H192.604V308.834H189.772ZM184.831 312.155H187.81L188.454 308.834H185.476L184.831 312.155ZM197.145 317.614H195.485V303.336H203.434V304.801H197.145V310.036H203.053V311.491H197.145V317.614ZM212.321 304.596C211.533 304.596 210.823 304.733 210.192 305.006C209.567 305.273 209.033 305.664 208.59 306.178C208.154 306.686 207.819 307.301 207.584 308.024C207.35 308.747 207.233 309.56 207.233 310.465C207.233 311.663 207.418 312.705 207.789 313.59C208.167 314.469 208.727 315.15 209.469 315.631C210.218 316.113 211.152 316.354 212.272 316.354C212.91 316.354 213.509 316.302 214.069 316.198C214.635 316.087 215.185 315.95 215.719 315.788V317.233C215.198 317.428 214.651 317.571 214.078 317.663C213.505 317.76 212.825 317.809 212.037 317.809C210.585 317.809 209.371 317.51 208.395 316.911C207.425 316.305 206.696 315.452 206.207 314.352C205.725 313.252 205.485 311.953 205.485 310.456C205.485 309.375 205.634 308.389 205.934 307.497C206.24 306.598 206.682 305.823 207.262 305.172C207.848 304.521 208.564 304.02 209.41 303.668C210.263 303.31 211.24 303.131 212.34 303.131C213.063 303.131 213.759 303.203 214.43 303.346C215.1 303.489 215.706 303.694 216.246 303.961L215.582 305.368C215.126 305.159 214.625 304.98 214.078 304.831C213.538 304.674 212.952 304.596 212.321 304.596ZM220.875 317.614H219.215V303.336H227.164V304.801H220.875V310.036H226.783V311.491H220.875V317.614ZM236.05 304.596C235.262 304.596 234.553 304.733 233.921 305.006C233.296 305.273 232.762 305.664 232.32 306.178C231.884 306.686 231.548 307.301 231.314 308.024C231.079 308.747 230.962 309.56 230.962 310.465C230.962 311.663 231.148 312.705 231.519 313.59C231.897 314.469 232.456 315.15 233.199 315.631C233.947 316.113 234.882 316.354 236.001 316.354C236.639 316.354 237.238 316.302 237.798 316.198C238.365 316.087 238.915 315.95 239.449 315.788V317.233C238.928 317.428 238.381 317.571 237.808 317.663C237.235 317.76 236.555 317.809 235.767 317.809C234.315 317.809 233.101 317.51 232.124 316.911C231.154 316.305 230.425 315.452 229.937 314.352C229.455 313.252 229.214 311.953 229.214 310.456C229.214 309.375 229.364 308.389 229.663 307.497C229.969 306.598 230.412 305.823 230.992 305.172C231.578 304.521 232.294 304.02 233.14 303.668C233.993 303.31 234.969 303.131 236.07 303.131C236.792 303.131 237.489 303.203 238.16 303.346C238.83 303.489 239.436 303.694 239.976 303.961L239.312 305.368C238.856 305.159 238.355 304.98 237.808 304.831C237.268 304.674 236.682 304.596 236.05 304.596ZM244.604 317.614H242.944V303.336H250.894V304.801H244.604V310.036H250.513V311.491H244.604V317.614ZM259.78 304.596C258.992 304.596 258.282 304.733 257.651 305.006C257.026 305.273 256.492 305.664 256.049 306.178C255.613 306.686 255.278 307.301 255.044 308.024C254.809 308.747 254.692 309.56 254.692 310.465C254.692 311.663 254.878 312.705 255.249 313.59C255.626 314.469 256.186 315.15 256.928 315.631C257.677 316.113 258.611 316.354 259.731 316.354C260.369 316.354 260.968 316.302 261.528 316.198C262.094 316.087 262.644 315.95 263.178 315.788V317.233C262.657 317.428 262.111 317.571 261.538 317.663C260.965 317.76 260.284 317.809 259.497 317.809C258.045 317.809 256.831 317.51 255.854 316.911C254.884 316.305 254.155 315.452 253.667 314.352C253.185 313.252 252.944 311.953 252.944 310.456C252.944 309.375 253.094 308.389 253.393 307.497C253.699 306.598 254.142 305.823 254.721 305.172C255.307 304.521 256.023 304.02 256.87 303.668C257.723 303.31 258.699 303.131 259.799 303.131C260.522 303.131 261.219 303.203 261.889 303.346C262.56 303.489 263.165 303.694 263.706 303.961L263.042 305.368C262.586 305.159 262.085 304.98 261.538 304.831C260.997 304.674 260.411 304.596 259.78 304.596Z"/><circle cx="569.957" cy="684.958" r="50.807" fill="#152DFF"/><g filter="url(#filter3_f_930_31)"><circle cx="570.044" cy="685.048" r="26.508" fill="#152DFF" transform="rotate(1.21319 570.044 685.048)"/></g><path fill="#FCFCFC" d="M538.585 766.94L537.95 770.26H540.714V771.5H537.706L536.876 775.719H535.558L536.388 771.5H533.409L532.608 775.719H531.31L532.081 771.5H529.522V770.26H532.325L532.979 766.94H530.265V765.719H533.204L534.015 761.442H535.353L534.542 765.719H537.54L538.351 761.442H539.64L538.829 765.719H541.417V766.94H538.585ZM533.644 770.26H536.622L537.267 766.94H534.288L533.644 770.26ZM549.366 775.719H547.784V765.602C547.784 765.218 547.784 764.889 547.784 764.616C547.79 764.336 547.797 764.082 547.803 763.854C547.816 763.62 547.833 763.382 547.852 763.141C547.65 763.349 547.462 763.528 547.286 763.678C547.11 763.821 546.892 764 546.631 764.215L545.001 765.524L544.151 764.42L548.018 761.442H549.366V775.719ZM559.688 766.989C560.658 766.989 561.501 767.155 562.217 767.487C562.933 767.812 563.487 768.288 563.877 768.913C564.274 769.538 564.473 770.296 564.473 771.188C564.473 772.165 564.261 773.008 563.838 773.717C563.415 774.42 562.806 774.964 562.012 775.348C561.218 775.726 560.267 775.915 559.16 775.915C558.418 775.915 557.728 775.849 557.09 775.719C556.452 775.589 555.915 775.394 555.479 775.133V773.59C555.954 773.877 556.53 774.105 557.207 774.274C557.884 774.443 558.542 774.528 559.18 774.528C559.903 774.528 560.534 774.414 561.074 774.186C561.621 773.952 562.044 773.6 562.344 773.131C562.65 772.656 562.803 772.06 562.803 771.344C562.803 770.394 562.51 769.661 561.924 769.147C561.345 768.626 560.427 768.366 559.17 768.366C558.766 768.366 558.324 768.398 557.842 768.463C557.36 768.528 556.963 768.6 556.651 768.678L555.83 768.141L556.377 761.442H563.477V762.926H557.764L557.403 767.233C557.65 767.181 557.969 767.129 558.36 767.077C558.75 767.018 559.193 766.989 559.688 766.989ZM576.377 775.719H567.021V774.362L570.84 770.485C571.549 769.769 572.145 769.131 572.627 768.571C573.115 768.011 573.486 767.461 573.74 766.92C573.994 766.374 574.121 765.775 574.121 765.124C574.121 764.316 573.88 763.701 573.398 763.278C572.923 762.848 572.295 762.633 571.513 762.633C570.83 762.633 570.224 762.75 569.697 762.985C569.17 763.219 568.629 763.551 568.076 763.981L567.207 762.887C567.584 762.568 567.995 762.285 568.437 762.038C568.887 761.79 569.365 761.595 569.873 761.452C570.387 761.308 570.934 761.237 571.513 761.237C572.392 761.237 573.151 761.39 573.789 761.696C574.427 762.002 574.918 762.438 575.263 763.004C575.615 763.571 575.791 764.245 575.791 765.026C575.791 765.781 575.641 766.484 575.342 767.135C575.042 767.78 574.622 768.421 574.082 769.059C573.541 769.691 572.91 770.361 572.187 771.071L569.082 774.167V774.235H576.377V775.719ZM591.171 768.444C591.171 770.052 590.878 771.396 590.292 772.477C589.706 773.551 588.857 774.362 587.744 774.909C586.637 775.449 585.292 775.719 583.71 775.719H579.833V761.442H584.14C585.592 761.442 586.842 761.709 587.89 762.243C588.938 762.77 589.745 763.555 590.312 764.596C590.885 765.631 591.171 766.914 591.171 768.444ZM589.423 768.502C589.423 767.22 589.208 766.162 588.779 765.329C588.356 764.495 587.731 763.877 586.904 763.473C586.083 763.063 585.078 762.858 583.886 762.858H581.494V774.293H583.515C585.481 774.293 586.956 773.808 587.939 772.838C588.928 771.868 589.423 770.423 589.423 768.502ZM596.405 775.719H594.745V761.442H602.694V762.907H596.405V768.141H602.313V769.596H596.405V775.719ZM607.137 775.719H605.477V761.442H613.426V762.907H607.137V768.141H613.045V769.596H607.137V775.719Z"/><g filter="url(#filter4_f_930_31)"><circle cx="583.42" cy="312.303" r="26.508" fill="#929292" transform="rotate(1.21319 583.42 312.303)"/></g><circle cx="583.871" cy="311.871" r="50.807" fill="#121110" transform="rotate(1.21319 583.871 311.871)"/><path fill="#FCFCFC" d="M556.491 393.854L555.856 397.174H558.62V398.414H555.612L554.782 402.633H553.464L554.294 398.414H551.315L550.515 402.633H549.216L549.987 398.414H547.429V397.174H550.231L550.886 393.854H548.171V392.633H551.11L551.921 388.355H553.259L552.448 392.633H555.446L556.257 388.355H557.546L556.735 392.633H559.323V393.854H556.491ZM551.55 397.174H554.528L555.173 393.854H552.194L551.55 397.174ZM567.272 402.633H565.69V392.516C565.69 392.132 565.69 391.803 565.69 391.529C565.697 391.249 565.703 390.995 565.71 390.768C565.723 390.533 565.739 390.296 565.758 390.055C565.557 390.263 565.368 390.442 565.192 390.592C565.016 390.735 564.798 390.914 564.538 391.129L562.907 392.437L562.057 391.334L565.924 388.355H567.272V402.633ZM582.438 402.633H573.082V401.275L576.901 397.398C577.61 396.682 578.206 396.044 578.688 395.484C579.176 394.924 579.547 394.374 579.801 393.834C580.055 393.287 580.182 392.688 580.182 392.037C580.182 391.23 579.941 390.615 579.459 390.191C578.984 389.762 578.356 389.547 577.574 389.547C576.891 389.547 576.285 389.664 575.758 389.898C575.231 390.133 574.69 390.465 574.137 390.895L573.268 389.801C573.645 389.482 574.056 389.199 574.498 388.951C574.947 388.704 575.426 388.508 575.934 388.365C576.448 388.222 576.995 388.15 577.574 388.15C578.453 388.15 579.212 388.303 579.85 388.609C580.488 388.915 580.979 389.352 581.324 389.918C581.676 390.484 581.852 391.158 581.852 391.939C581.852 392.695 581.702 393.398 581.403 394.049C581.103 394.693 580.683 395.335 580.143 395.973C579.602 396.604 578.971 397.275 578.248 397.984L575.143 401.08V401.148H582.438V402.633ZM590.963 402.633H589.381V392.516C589.381 392.132 589.381 391.803 589.381 391.529C589.387 391.249 589.394 390.995 589.4 390.768C589.413 390.533 589.429 390.296 589.449 390.055C589.247 390.263 589.058 390.442 588.883 390.592C588.707 390.735 588.489 390.914 588.228 391.129L586.597 392.437L585.748 391.334L589.615 388.355H590.963V402.633ZM602.808 402.633H601.226V392.516C601.226 392.132 601.226 391.803 601.226 391.529C601.232 391.249 601.239 390.995 601.245 390.768C601.259 390.533 601.275 390.296 601.294 390.055C601.093 390.263 600.904 390.442 600.728 390.592C600.552 390.735 600.334 390.914 600.074 391.129L598.443 392.437L597.593 391.334L601.46 388.355H602.808V402.633ZM614.653 402.633H613.071V392.516C613.071 392.132 613.071 391.803 613.071 391.529C613.078 391.249 613.084 390.995 613.091 390.768C613.104 390.533 613.12 390.296 613.14 390.055C612.938 390.263 612.749 390.442 612.573 390.592C612.397 390.735 612.179 390.914 611.919 391.129L610.288 392.437L609.438 391.334L613.306 388.355H614.653V402.633ZM629.897 395.475C629.897 396.633 629.809 397.669 629.633 398.58C629.458 399.492 629.181 400.263 628.803 400.895C628.426 401.526 627.937 402.008 627.338 402.34C626.74 402.665 626.02 402.828 625.18 402.828C624.119 402.828 623.24 402.538 622.544 401.959C621.853 401.38 621.336 400.543 620.991 399.449C620.652 398.349 620.483 397.024 620.483 395.475C620.483 393.951 620.636 392.643 620.942 391.549C621.254 390.449 621.756 389.605 622.446 389.02C623.136 388.427 624.047 388.131 625.18 388.131C626.254 388.131 627.14 388.424 627.837 389.01C628.533 389.589 629.051 390.429 629.389 391.529C629.728 392.623 629.897 393.938 629.897 395.475ZM622.114 395.475C622.114 396.803 622.215 397.91 622.417 398.795C622.618 399.68 622.944 400.344 623.393 400.787C623.849 401.223 624.445 401.441 625.18 401.441C625.916 401.441 626.508 401.223 626.958 400.787C627.413 400.351 627.742 399.69 627.944 398.805C628.152 397.919 628.256 396.809 628.256 395.475C628.256 394.166 628.156 393.072 627.954 392.193C627.752 391.308 627.426 390.644 626.977 390.201C626.528 389.752 625.929 389.527 625.18 389.527C624.432 389.527 623.833 389.752 623.383 390.201C622.934 390.644 622.609 391.308 622.407 392.193C622.212 393.072 622.114 394.166 622.114 395.475Z"/><defs><filter id="filter0_f_930_31" width="453.016" height="453.016" x="631.388" y="332.71" color-interpolation-filters="sRGB" filterUnits="userSpaceOnUse"><feFlood flood-opacity="0" result="BackgroundImageFix"/><feBlend in="SourceGraphic" in2="BackgroundImageFix" mode="normal" result="shape"/><feGaussianBlur result="effect1_foregroundBlur_930_31" stdDeviation="100"/></filter><filter id="filter1_f_930_31" width="453.016" height="453.016" x="121.387" y="263.387" color-interpolation-filters="sRGB" filterUnits="userSpaceOnUse"><feFlood flood-opacity="0" result="BackgroundImageFix"/><feBlend in="SourceGraphic" in2="BackgroundImageFix" mode="normal" result="shape"/><feGaussianBlur result="effect1_foregroundBlur_930_31" stdDeviation="100"/></filter><filter id="filter2_f_930_31" width="453.016" height="453.016" x=".388" y=".387" color-interpolation-filters="sRGB" filterUnits="userSpaceOnUse"><feFlood flood-opacity="0" result="BackgroundImageFix"/><feBlend in="SourceGraphic" in2="BackgroundImageFix" mode="normal" result="shape"/><feGaussianBlur result="effect1_foregroundBlur_930_31" stdDeviation="100"/></filter><filter id="filter3_f_930_31" width="453.017" height="453.016" x="343.536" y="458.54" color-interpolation-filters="sRGB" filterUnits="userSpaceOnUse"><feFlood flood-opacity="0" result="BackgroundImageFix"/><feBlend in="SourceGraphic" in2="BackgroundImageFix" mode="normal" result="shape"/><feGaussianBlur result="effect1_foregroundBlur_930_31" stdDeviation="100"/></filter><filter id="filter4_f_930_31" width="253.017" height="253.016" x="456.912" y="185.795" color-interpolation-filters="sRGB" filterUnits="userSpaceOnUse"><feFlood flood-opacity="0" result="BackgroundImageFix"/><feBlend in="SourceGraphic" in2="BackgroundImageFix" mode="normal" result="shape"/><feGaussianBlur result="effect1_foregroundBlur_930_31" stdDeviation="50"/></filter></defs></svg>