<svg xmlns="http://www.w3.org/2000/svg" width="40" height="60" fill="none" viewBox="0 0 40 60"><g clip-path="url(#clip0_789_967)"><path fill="#0ACF83" d="M10.0403 59.6841C15.4834 59.6841 19.9019 55.2657 19.9019 49.8225V39.9609H10.0403C4.59713 39.9609 0.178711 44.3794 0.178711 49.8225C0.178711 55.2657 4.59713 59.6841 10.0403 59.6841Z"/><path fill="#A259FF" d="M0.178711 30.1018C0.178711 24.6587 4.59713 20.2402 10.0403 20.2402H19.9019V39.961H10.0403C4.59713 39.9634 0.178711 35.545 0.178711 30.1018Z"/><path fill="#F24E1E" d="M0.178711 10.3811C0.178711 4.93795 4.59713 0.519531 10.0403 0.519531H19.9019V20.2403H10.0403C4.59713 20.2403 0.178711 15.8243 0.178711 10.3811Z"/><path fill="#FF7262" d="M19.9004 0.519531H29.762C35.2051 0.519531 39.6236 4.93795 39.6236 10.3811C39.6236 15.8243 35.2051 20.2403 29.762 20.2403H19.9004V0.519531Z"/><path fill="#1ABCFE" d="M39.6236 30.1018C39.6236 35.545 35.2051 39.9634 29.762 39.9634C24.3188 39.9634 19.9004 35.545 19.9004 30.1018C19.9004 24.6587 24.3188 20.2402 29.762 20.2402C35.2051 20.2402 39.6236 24.6587 39.6236 30.1018Z"/></g><defs><clipPath id="clip0_789_967"><rect width="39.444" height="59.165" fill="#fff" transform="translate(0.178711 0.519531)"/></clipPath></defs></svg>