<svg width="84" height="61" viewBox="0 0 84 61" fill="none" xmlns="http://www.w3.org/2000/svg">
<path d="M7.37965 9.36406C13.2255 3.71636 22.0713 0.853516 33.6672 0.853516H37.8338V11.3209L34.4838 11.9187C28.7755 12.9361 24.8047 14.9375 22.6797 17.8746C21.5709 19.4569 20.942 21.2686 20.8547 23.1324H33.6672C34.7722 23.1324 35.832 23.5236 36.6134 24.22C37.3948 24.9163 37.8338 25.8608 37.8338 26.8456V52.8376C37.8338 56.9333 34.0963 60.264 29.5005 60.264H4.50048C3.39541 60.264 2.33561 59.8727 1.5542 59.1764C0.772803 58.48 0.333816 57.5356 0.333816 56.5508V37.985L0.346317 27.1463C0.308817 26.7342 -0.48285 16.9686 7.37965 9.36406ZM75.3338 60.264H50.3338C49.2288 60.264 48.1689 59.8727 47.3875 59.1764C46.6061 58.48 46.1672 57.5356 46.1672 56.5508V37.985L46.1797 27.1463C46.1422 26.7342 45.3505 16.9686 53.213 9.36406C59.0588 3.71636 67.9047 0.853516 79.5005 0.853516H83.6672V11.3209L80.3172 11.9187C74.6088 12.9361 70.638 14.9375 68.513 17.8746C67.4042 19.4569 66.7754 21.2686 66.688 23.1324H79.5005C80.6056 23.1324 81.6654 23.5236 82.4468 24.22C83.2282 24.9163 83.6672 25.8608 83.6672 26.8456V52.8376C83.6672 56.9333 79.9297 60.264 75.3338 60.264Z" fill="black" fill-opacity="0.8"/>
</svg>
