<svg width="100" height="90" viewBox="0 0 100 90" fill="none" xmlns="http://www.w3.org/2000/svg">
<g filter="url(#filter0_d_789_883)">
<path d="M84.6204 65.7534C92.4829 58.1489 91.6912 48.3833 91.6662 48.2719V18.5667C91.6662 17.5819 91.2272 16.6374 90.4458 15.9411C89.6644 15.2447 88.6046 14.8535 87.4995 14.8535H62.4995C57.9037 14.8535 54.1662 18.1842 54.1662 22.2798V48.2719C54.1662 49.2567 54.6052 50.2011 55.3866 50.8975C56.168 51.5938 57.2278 51.985 58.3329 51.985H71.1579C71.0698 53.8208 70.4544 55.6056 69.3704 57.1686C67.2537 60.1428 63.2662 62.1739 57.5121 63.1988L54.1662 63.7929V74.2639H58.3329C69.9287 74.2639 78.7746 71.4011 84.6204 65.7534ZM38.7579 65.7534C46.6245 58.1489 45.8287 48.3833 45.8037 48.2719V18.5667C45.8037 17.5819 45.3647 16.6374 44.5833 15.9411C43.8019 15.2447 42.7421 14.8535 41.637 14.8535H16.637C12.0412 14.8535 8.30371 18.1842 8.30371 22.2798V48.2719C8.30371 49.2567 8.7427 50.2011 9.5241 50.8975C10.3055 51.5938 11.3653 51.985 12.4704 51.985H25.2954C25.2073 53.8208 24.5919 55.6056 23.5079 57.1686C21.3912 60.1428 17.4037 62.1739 11.6495 63.1988L8.30371 63.7929V74.2639H12.4704C24.0662 74.2639 32.912 71.4011 38.7579 65.7534Z" fill="black"/>
</g>
<defs>
<filter id="filter0_d_789_883" x="-4" y="0" width="108" height="97.1152" filterUnits="userSpaceOnUse" color-interpolation-filters="sRGB">
<feFlood flood-opacity="0" result="BackgroundImageFix"/>
<feColorMatrix in="SourceAlpha" type="matrix" values="0 0 0 0 0 0 0 0 0 0 0 0 0 0 0 0 0 0 127 0" result="hardAlpha"/>
<feOffset dy="4"/>
<feGaussianBlur stdDeviation="2"/>
<feComposite in2="hardAlpha" operator="out"/>
<feColorMatrix type="matrix" values="0 0 0 0 0 0 0 0 0 0 0 0 0 0 0 0 0 0 0.25 0"/>
<feBlend mode="normal" in2="BackgroundImageFix" result="effect1_dropShadow_789_883"/>
<feBlend mode="normal" in="SourceGraphic" in2="effect1_dropShadow_789_883" result="shape"/>
</filter>
</defs>
</svg>
